{"title":"Paris Hilton ft. Lil Wayne -Good Time (Explicit) FULL HD","uid":9475816,"size":158564902,"categoryP":"video","categoryS":"music_videos","magnet":"?xt=urn:btih:df419cdb81d15605012ea4e68dd73692affdc9f9&amp;dn=Paris+Hilton+ft.+Lil+Wayne+-Good+Time+%28Explicit%29+FULL+HD&amp;tr=udp%3A%2F%2Ftracker.openbittorrent.com%3A80&amp;tr=udp%3A%2F%2Fopen.demonii.com%3A1337&amp;tr=udp%3A%2F%2Ftracker.coppersurfer.tk%3A6969&amp;tr=udp%3A%2F%2Fexodus.desync.com%3A6969","seeders":1,"leechers":0,"uploader":"black731","files":1,"time":1389692130,"description":"Format : MPEG-4\nFormat profile : Base Media / Version 2\nCodec ID : mp42\nFile size : 151 MiB\nDuration : 3mn 46s\nOverall bit rate mode : Variable\nOverall bit rate : 5 600 Kbps\nMovie name : Good Time\nPerformer : Paris Hilton ft. Lil Wayne\nGenre : Dance\nCopyright : Paris Hilton\n\nVideo\nID : 1\nFormat : AVC\nFormat/Info : Advanced Video Codec\nFormat profile : &lt;a class=&quot;__cf_email__&quot; href=&quot;/cdn-cgi/l/email-protection&quot; data-cfemail=&quot;4b03222c230b077f657b&quot;&gt;[email&amp;#160;protected]&lt;/a&gt;&lt;script cf-hash='f9e31' type=&quot;text/javascript&quot;&gt;\n/* &lt;![CDATA[ */!function(){try{var t=&quot;currentScript&quot;in document?document.currentScript:function(){for(var t=document.getElementsByTagName(&quot;script&quot;),e=t.length;e--;)if(t[e].getAttribute(&quot;cf-hash&quot;))return t[e]}();if(t&amp;&amp;t.previousSibling){var e,r,n,i,c=t.previousSibling,a=c.getAttribute(&quot;data-cfemail&quot;);if(a){for(e=&quot;&quot;,r=parseInt(a.substr(0,2),16),n=2;a.length-n;n+=2)i=parseInt(a.substr(n,2),16)^r,e+=String.fromCharCode(i);e=document.createTextNode(e),c.parentNode.replaceChild(e,c)}}}catch(u){}}();/* ]]&gt; */&lt;/script&gt;\nFormat settings, CABAC : Yes\nFormat settings, ReFrames : 1 frame\nCodec ID : avc1\nCodec ID/Info : Advanced Video Coding\nDuration : 3mn 46s\nBit rate : 5 404 Kbps\nMaximum bit rate : 11.9 Mbps\nWidth : 1920 pixels\nHeight : 1080 pixels\nDisplay aspect ratio : 16:9\nFrame rate mode : Constant\nFrame rate : 23.976 fps\nColor space : YUV\nChroma subsampling : 4:2:0\nBit depth : 8 bits\nScan type : Progressive\nBits/(Pixel*Frame) : 0.109\nStream size : 146 MiB (97%)\nTagged date : UTC 2013-10-07 15:42:22\n\nAudio\nID : 2\nFormat : AAC\nFormat/Info : Advanced Audio Codec\nFormat profile : LC\nCodec ID : 40\nDuration : 3mn 46s\nBit rate mode : Variable\nBit rate : 192 Kbps\nMaximum bit rate : 202 Kbps\nChannel(s) : 2 channels\nChannel positions : Front: L R\nSampling rate : 44.1 KHz\nCompression mode : Lossy\nStream size : 5.18 MiB (3%)","torrent":{"xt":"urn:btih:df419cdb81d15605012ea4e68dd73692affdc9f9","amp;dn":"Paris+Hilton+ft.+Lil+Wayne+-Good+Time+%28Explicit%29+FULL+HD","amp;tr":["udp%3A%2F%2Ftracker.openbittorrent.com%3A80","udp%3A%2F%2Fopen.demonii.com%3A1337","udp%3A%2F%2Ftracker.coppersurfer.tk%3A6969","udp%3A%2F%2Fexodus.desync.com%3A6969"],"infoHash":"df419cdb81d15605012ea4e68dd73692affdc9f9","infoHashBuffer":{"type":"Buffer","data":[223,65,156,219,129,209,86,5,1,46,164,230,141,215,54,146,175,253,201,249]},"announce":[],"urlList":[]}}